<svg width="40" height="40" viewBox="0 0 40 40" fill="none" xmlns="http://www.w3.org/2000/svg">
<path d="M7.33016 19.9424L7.33016 19.9444C7.33145 20.3233 7.34981 20.7019 7.38513 21.079H0.459229V18.7705H7.38973C7.35182 19.16 7.33193 19.551 7.33016 19.9424Z" stroke="white" stroke-width="0.5"/>
<path d="M5.35916 6.96632L6.99492 5.3341L11.9105 10.2376C11.3162 10.7314 10.768 11.2779 10.2727 11.8706L5.35916 6.96632Z" stroke="white" stroke-width="0.5"/>
<path d="M19.9813 7.31659L19.9793 7.3166C19.5933 7.31817 19.2075 7.33732 18.8234 7.37402V0.441406H21.1372V7.37404C20.753 7.33736 20.3673 7.31817 19.9813 7.31659Z" stroke="white" stroke-width="0.5"/>
<path d="M28.0497 10.2398L32.9652 5.33403L34.6008 6.96394L29.6872 11.8683C29.192 11.277 28.6439 10.7319 28.0497 10.2398Z" stroke="white" stroke-width="0.5"/>
<path d="M6.99491 34.5176L5.35916 32.8849L10.2565 27.9979C10.7502 28.5911 11.2968 29.1382 11.8897 29.6326L6.99491 34.5176Z" stroke="white" stroke-width="0.5"/>
<path d="M19.9814 32.5704C20.3674 32.5687 20.753 32.5495 21.1372 32.5129V39.4081H18.8234V32.5129C19.2075 32.5496 19.5932 32.5688 19.9792 32.5704L19.9814 32.5704Z" stroke="white" stroke-width="0.5"/>
<path d="M32.576 21.079C32.6502 20.3112 32.6487 19.538 32.5715 18.7705H39.5033V21.079H32.576Z" stroke="white" stroke-width="0.5"/>
<path d="M34.6009 32.8849L32.9651 34.5176L28.0704 29.6327C28.6638 29.1383 29.211 28.5911 29.7052 27.9978L34.6009 32.8849Z" stroke="white" stroke-width="0.5"/>
<path d="M29.6294 19.9435C29.6294 25.2622 25.3096 29.5745 19.9798 29.5745C14.65 29.5745 10.3302 25.2622 10.3302 19.9435C10.3302 14.6249 14.65 10.3125 19.9798 10.3125H19.9798H19.9798H19.9798H19.9798H19.9798H19.9798H19.9798H19.9798H19.9798H19.9798H19.9798H19.9799H19.9799H19.9799H19.9799H19.9799H19.9799H19.9799H19.9799H19.9799H19.9799H19.9799H19.9799H19.9799H19.98H19.98H19.98H19.98H19.98H19.98H19.98H19.98H19.98H19.98H19.98H19.98H19.9801H19.9801H19.9801H19.9801H19.9801H19.9801H19.9801H19.9801H19.9801H19.9801H19.9801H19.9801H19.9801H19.9802H19.9802H19.9802H19.9802H19.9802H19.9802H19.9802H19.9802H19.9802H19.9802H19.9802H19.9802H19.9802H19.9803H19.9803H19.9803H19.9803H19.9803H19.9803H19.9803H19.9803H19.9803H19.9803H19.9803H19.9803H19.9804H19.9804H19.9804H19.9804H19.9804H19.9804H19.9804C25.3098 10.3125 29.6294 14.6247 29.6294 19.9429V19.9429V19.9429V19.943V19.943V19.943V19.943V19.943V19.943V19.943V19.9431V19.9431V19.9431V19.9431V19.9431V19.9431V19.9432V19.9432V19.9432V19.9432V19.9432V19.9432V19.9432V19.9433V19.9433V19.9433V19.9433V19.9433V19.9433V19.9434V19.9434V19.9434V19.9434V19.9434V19.9434V19.9435V19.9435V19.9435V19.9435V19.9435V19.9435Z" stroke="white" stroke-width="0.5"/>
</svg>
