<svg width="583" height="149" viewBox="0 0 583 149" fill="none" xmlns="http://www.w3.org/2000/svg">
<path d="M71.0746 2.78758C74.1304 1.05808 77.8695 1.05808 80.9254 2.78758L136.743 34.378C139.879 36.1528 141.818 39.4775 141.818 43.0809V105.919C141.818 109.522 139.879 112.847 136.743 114.622L80.9254 146.212C77.8696 147.942 74.1305 147.942 71.0746 146.212L15.2566 114.622C12.1207 112.847 10.1821 109.522 10.1821 105.919V43.0809C10.1821 39.4775 12.1207 36.1528 15.2566 34.378L71.0746 2.78758Z" fill="black"/>
<path d="M36.2188 75L57.8125 83.75V89.875L32.25 78.0312V74.4375L36.2188 75ZM57.8125 67.8125L36.25 76.6875L32.25 77.125V73.5L57.8125 61.6875V67.8125ZM87.0938 50.5L68.125 99.9062H63.1562L82.1562 50.5H87.0938ZM115.438 76.25L93.2188 67.5938V61.625L119.906 73.4375V77.0938L115.438 76.25ZM93.2188 83.875L115.5 75.0312L119.906 74.375V78L93.2188 89.8438V83.875Z" fill="white"/>
<line x1="164.5" y1="146.5" x2="164.5" y2="2.5" stroke="white" stroke-width="5" stroke-linecap="round"/>
<path d="M198.97 96V51.2H217.85C222.629 51.2 226.831 52.1387 230.458 54.016C234.127 55.8933 236.965 58.5173 238.97 61.888C241.018 65.2587 242.042 69.1627 242.042 73.6C242.042 78.0373 241.018 81.9413 238.97 85.312C236.965 88.6827 234.127 91.3067 230.458 93.184C226.831 95.0613 222.629 96 217.85 96H198.97ZM205.37 90.432H217.466C221.178 90.432 224.378 89.728 227.066 88.32C229.797 86.912 231.909 84.9493 233.402 82.432C234.895 79.872 235.642 76.928 235.642 73.6C235.642 70.2293 234.895 67.2853 233.402 64.768C231.909 62.2507 229.797 60.288 227.066 58.88C224.378 57.472 221.178 56.768 217.466 56.768H205.37V90.432ZM257.669 70.528H280.709V75.968H257.669V70.528ZM258.245 90.432H284.357V96H251.845V51.2H283.461V56.768H258.245V90.432ZM307.023 96L287.311 51.2H294.223L312.335 92.544H308.367L326.607 51.2H333.007L313.359 96H307.023ZM356.845 96V51.2H376.941C382.104 51.2 386.072 52.2453 388.845 54.336C391.618 56.384 393.005 59.2 393.005 62.784C393.005 65.216 392.45 67.264 391.341 68.928C390.274 70.592 388.824 71.872 386.989 72.768C385.154 73.664 383.17 74.112 381.037 74.112L382.189 72.192C384.749 72.192 387.01 72.64 388.973 73.536C390.936 74.432 392.493 75.7547 393.645 77.504C394.797 79.2107 395.373 81.344 395.373 83.904C395.373 87.744 393.922 90.7307 391.021 92.864C388.162 94.9547 383.896 96 378.221 96H356.845ZM363.245 90.816H377.965C381.506 90.816 384.216 90.2187 386.093 89.024C387.97 87.8293 388.909 85.952 388.909 83.392C388.909 80.7893 387.97 78.8907 386.093 77.696C384.216 76.5013 381.506 75.904 377.965 75.904H362.669V70.72H376.365C379.608 70.72 382.125 70.1227 383.917 68.928C385.709 67.7333 386.605 65.9413 386.605 63.552C386.605 61.1627 385.709 59.3707 383.917 58.176C382.125 56.9813 379.608 56.384 376.365 56.384H363.245V90.816ZM425.507 96.512C422.093 96.512 418.915 95.936 415.971 94.784C413.069 93.632 410.552 92.032 408.419 89.984C406.285 87.8933 404.621 85.4613 403.427 82.688C402.232 79.9147 401.635 76.8853 401.635 73.6C401.635 70.3147 402.232 67.2853 403.427 64.512C404.621 61.7387 406.285 59.328 408.419 57.28C410.552 55.1893 413.069 53.568 415.971 52.416C418.872 51.264 422.051 50.688 425.507 50.688C428.92 50.688 432.056 51.264 434.915 52.416C437.816 53.5253 440.333 55.1253 442.467 57.216C444.643 59.264 446.307 61.6747 447.459 64.448C448.653 67.2213 449.251 70.272 449.251 73.6C449.251 76.928 448.653 79.9787 447.459 82.752C446.307 85.5253 444.643 87.9573 442.467 90.048C440.333 92.096 437.816 93.696 434.915 94.848C432.056 95.9573 428.92 96.512 425.507 96.512ZM425.507 90.816C427.981 90.816 430.264 90.3893 432.354 89.536C434.488 88.6827 436.323 87.488 437.859 85.952C439.437 84.3733 440.653 82.5387 441.507 80.448C442.403 78.3573 442.851 76.0747 442.851 73.6C442.851 71.1253 442.403 68.8427 441.507 66.752C440.653 64.6613 439.437 62.848 437.859 61.312C436.323 59.7333 434.488 58.5173 432.354 57.664C430.264 56.8107 427.981 56.384 425.507 56.384C422.989 56.384 420.664 56.8107 418.531 57.664C416.44 58.5173 414.605 59.7333 413.027 61.312C411.448 62.848 410.211 64.6613 409.315 66.752C408.461 68.8427 408.035 71.1253 408.035 73.6C408.035 76.0747 408.461 78.3573 409.315 80.448C410.211 82.5387 411.448 84.3733 413.027 85.952C414.605 87.488 416.44 88.6827 418.531 89.536C420.664 90.3893 422.989 90.816 425.507 90.816ZM479.257 96.512C475.843 96.512 472.665 95.936 469.721 94.784C466.819 93.632 464.302 92.032 462.169 89.984C460.035 87.8933 458.371 85.4613 457.177 82.688C455.982 79.9147 455.385 76.8853 455.385 73.6C455.385 70.3147 455.982 67.2853 457.177 64.512C458.371 61.7387 460.035 59.328 462.169 57.28C464.302 55.1893 466.819 53.568 469.721 52.416C472.622 51.264 475.801 50.688 479.257 50.688C482.67 50.688 485.806 51.264 488.665 52.416C491.566 53.5253 494.083 55.1253 496.217 57.216C498.393 59.264 500.057 61.6747 501.209 64.448C502.403 67.2213 503.001 70.272 503.001 73.6C503.001 76.928 502.403 79.9787 501.209 82.752C500.057 85.5253 498.393 87.9573 496.217 90.048C494.083 92.096 491.566 93.696 488.665 94.848C485.806 95.9573 482.67 96.512 479.257 96.512ZM479.257 90.816C481.731 90.816 484.014 90.3893 486.104 89.536C488.238 88.6827 490.073 87.488 491.609 85.952C493.187 84.3733 494.403 82.5387 495.257 80.448C496.153 78.3573 496.601 76.0747 496.601 73.6C496.601 71.1253 496.153 68.8427 495.257 66.752C494.403 64.6613 493.187 62.848 491.609 61.312C490.073 59.7333 488.238 58.5173 486.104 57.664C484.014 56.8107 481.731 56.384 479.257 56.384C476.739 56.384 474.414 56.8107 472.281 57.664C470.19 58.5173 468.355 59.7333 466.777 61.312C465.198 62.848 463.961 64.6613 463.065 66.752C462.211 68.8427 461.785 71.1253 461.785 73.6C461.785 76.0747 462.211 78.3573 463.065 80.448C463.961 82.5387 465.198 84.3733 466.777 85.952C468.355 87.488 470.19 88.6827 472.281 89.536C474.414 90.3893 476.739 90.816 479.257 90.816ZM525.839 96.512C522.425 96.512 519.161 96 516.047 94.976C512.932 93.9093 510.479 92.544 508.687 90.88L511.055 85.888C512.761 87.3813 514.937 88.6187 517.583 89.6C520.228 90.5813 522.98 91.072 525.839 91.072C528.441 91.072 530.553 90.7733 532.175 90.176C533.796 89.5787 534.991 88.768 535.759 87.744C536.527 86.6773 536.911 85.4827 536.911 84.16C536.911 82.624 536.399 81.3867 535.375 80.448C534.393 79.5093 533.092 78.7627 531.471 78.208C529.892 77.6107 528.143 77.0987 526.223 76.672C524.303 76.2453 522.361 75.7547 520.399 75.2C518.479 74.6027 516.708 73.856 515.087 72.96C513.508 72.064 512.228 70.8693 511.247 69.376C510.265 67.84 509.775 65.8773 509.775 63.488C509.775 61.184 510.372 59.072 511.567 57.152C512.804 55.1893 514.681 53.632 517.199 52.48C519.759 51.2853 523.001 50.688 526.927 50.688C529.529 50.688 532.111 51.0293 534.671 51.712C537.231 52.3947 539.449 53.376 541.326 54.656L539.215 59.776C537.295 58.496 535.268 57.5787 533.135 57.024C531.001 56.4267 528.932 56.128 526.927 56.128C524.409 56.128 522.34 56.448 520.719 57.088C519.097 57.728 517.903 58.5813 517.135 59.648C516.409 60.7147 516.047 61.9093 516.047 63.232C516.047 64.8107 516.537 66.0693 517.519 67.008C518.543 67.9467 519.844 68.6933 521.423 69.248C523.044 69.8027 524.815 70.3147 526.735 70.784C528.655 71.2107 530.575 71.7013 532.495 72.256C534.457 72.8107 536.228 73.536 537.807 74.432C539.428 75.328 540.729 76.5227 541.711 78.016C542.692 79.5093 543.183 81.4293 543.183 83.776C543.183 86.0373 542.564 88.1493 541.326 90.112C540.089 92.032 538.169 93.5893 535.567 94.784C533.007 95.936 529.764 96.512 525.839 96.512ZM560.804 96V56.768H545.444V51.2H582.5V56.768H567.14V96H560.804Z" fill="white"/>
</svg>
