<svg width="713" height="717" xmlns="http://www.w3.org/2000/svg" xmlns:xlink="http://www.w3.org/1999/xlink" xml:space="preserve" overflow="hidden"><defs><clipPath id="clip0"><rect x="989" y="616" width="713" height="717"/></clipPath><clipPath id="clip1"><path d="M1201.58 975.499 1556.22 616.307 1701.86 760.104 1347.23 1119.3Z" fill-rule="evenodd" clip-rule="evenodd"/></clipPath><clipPath id="clip2"><path d="M1201.58 975.499 1556.22 616.307 1701.86 760.104 1347.23 1119.3Z" fill-rule="evenodd" clip-rule="evenodd"/></clipPath><clipPath id="clip3"><path d="M1108.94 884.034 1463.58 524.842 1794.81 851.877 1440.18 1211.07Z" fill-rule="evenodd" clip-rule="evenodd"/></clipPath></defs><g clip-path="url(#clip0)" transform="translate(-989 -616)"><g clip-path="url(#clip1)"><g clip-path="url(#clip2)"><g clip-path="url(#clip3)"><path d="M34.2076 247.415 396.692 247.415 353.563 290.544C347.939 296.168 347.939 305.285 353.563 310.909 359.186 316.532 368.304 316.532 373.927 310.909L441.761 243.056C447.384 237.7 447.601 228.8 442.246 223.176 442.088 223.011 441.926 222.849 441.761 222.691L373.913 154.858C368.557 149.234 359.657 149.017 354.033 154.373 353.868 154.531 353.706 154.693 353.548 154.858 347.925 160.214 347.707 169.114 353.063 174.738 353.221 174.903 353.383 175.065 353.548 175.223L396.677 218.376 34.2076 218.376C26.174 218.376 19.6615 224.888 19.6615 232.922 19.6615 240.956 26.174 247.468 34.2076 247.468Z" stroke="#000000" stroke-width="21.7766" transform="matrix(0.761882 -0.771667 0.711604 0.702581 1108.94 884.034)"/></g></g></g><path d="M1007.5 1311.5 1527.19 1311.5" stroke="#0D0D0D" stroke-width="36.6667" stroke-linecap="round" stroke-linejoin="round" stroke-miterlimit="10" fill="none" fill-rule="evenodd"/><path d="M1007.5 789.5 1007.5 1309.19" stroke="#0D0D0D" stroke-width="36.6667" stroke-linecap="round" stroke-linejoin="round" stroke-miterlimit="10" fill="none" fill-rule="evenodd"/><path d="M1007.5 789.5 1397.26 789.5" stroke="#0D0D0D" stroke-width="36.6667" stroke-linecap="round" stroke-linejoin="round" stroke-miterlimit="10" fill="none" fill-rule="evenodd"/><path d="M1526.5 924.5 1526.5 1314.26" stroke="#0D0D0D" stroke-width="36.6667" stroke-linecap="round" stroke-linejoin="round" stroke-miterlimit="10" fill="none" fill-rule="evenodd"/></g></svg>