<svg width="40" height="40" viewBox="0 0 40 40" fill="none" xmlns="http://www.w3.org/2000/svg">
<path d="M7.33016 19.9424L7.33016 19.9444C7.33145 20.3233 7.34981 20.7019 7.38513 21.079H0.459229V18.7705H7.38973C7.35182 19.16 7.33193 19.551 7.33016 19.9424Z" fill="#EFD700" stroke="#EFD700" stroke-width="0.5"/>
<path d="M5.35928 6.96632L6.99504 5.3341L11.9107 10.2376C11.3163 10.7314 10.7681 11.2779 10.2728 11.8706L5.35928 6.96632Z" fill="#EFD700" stroke="#EFD700" stroke-width="0.5"/>
<path d="M19.9814 7.31659L19.9794 7.3166C19.5934 7.31817 19.2077 7.33732 18.8235 7.37402V0.441406H21.1373V7.37404C20.7531 7.33736 20.3675 7.31817 19.9814 7.31659Z" fill="#EFD700" stroke="#EFD700" stroke-width="0.5"/>
<path d="M28.0498 10.2398L32.9654 5.33403L34.6009 6.96394L29.6873 11.8683C29.1921 11.277 28.644 10.7319 28.0498 10.2398Z" fill="#EFD700" stroke="#EFD700" stroke-width="0.5"/>
<path d="M6.99503 34.5176L5.35928 32.8849L10.2566 27.9979C10.7503 28.5911 11.297 29.1382 11.8898 29.6326L6.99503 34.5176Z" fill="#EFD700" stroke="#EFD700" stroke-width="0.5"/>
<path d="M19.9815 32.5704C20.3675 32.5687 20.7531 32.5495 21.1373 32.5129V39.4081H18.8235V32.5129C19.2077 32.5496 19.5934 32.5688 19.9794 32.5704L19.9815 32.5704Z" fill="#EFD700" stroke="#EFD700" stroke-width="0.5"/>
<path d="M32.576 21.079C32.6502 20.3112 32.6487 19.538 32.5715 18.7705H39.5033V21.079H32.576Z" fill="#EFD700" stroke="#EFD700" stroke-width="0.5"/>
<path d="M34.601 32.8849L32.9652 34.5176L28.0705 29.6327C28.664 29.1383 29.2112 28.5911 29.7053 27.9978L34.601 32.8849Z" fill="#EFD700" stroke="#EFD700" stroke-width="0.5"/>
<path d="M29.6293 19.9435C29.6293 25.2622 25.3094 29.5745 19.9796 29.5745C14.6498 29.5745 10.3301 25.2622 10.3301 19.9435C10.3301 14.6249 14.6499 10.3125 19.9796 10.3125H19.9796H19.9797H19.9797H19.9797H19.9797H19.9797H19.9797H19.9797H19.9797H19.9797H19.9797H19.9797H19.9797H19.9797H19.9798H19.9798H19.9798H19.9798H19.9798H19.9798H19.9798H19.9798H19.9798H19.9798H19.9798H19.9798H19.9798H19.9799H19.9799H19.9799H19.9799H19.9799H19.9799H19.9799H19.9799H19.9799H19.9799H19.9799H19.9799H19.98H19.98H19.98H19.98H19.98H19.98H19.98H19.98H19.98H19.98H19.98H19.98H19.98H19.9801H19.9801H19.9801H19.9801H19.9801H19.9801H19.9801H19.9801H19.9801H19.9801H19.9801H19.9801H19.9802H19.9802H19.9802H19.9802H19.9802H19.9802H19.9802H19.9802H19.9802H19.9802H19.9802H19.9802H19.9802H19.9803H19.9803H19.9803H19.9803C25.3097 10.3125 29.6293 14.6247 29.6293 19.9429V19.9429V19.9429V19.943V19.943V19.943V19.943V19.943V19.943V19.943V19.9431V19.9431V19.9431V19.9431V19.9431V19.9431V19.9432V19.9432V19.9432V19.9432V19.9432V19.9432V19.9432V19.9433V19.9433V19.9433V19.9433V19.9433V19.9433V19.9434V19.9434V19.9434V19.9434V19.9434V19.9434V19.9435V19.9435V19.9435V19.9435V19.9435V19.9435Z" fill="#EFD700" stroke="#EFD700" stroke-width="0.5"/>
</svg>
