<svg width="52" height="42" viewBox="0 0 52 42" fill="none" xmlns="http://www.w3.org/2000/svg">
<path d="M44.159 3.77606C40.8396 2.1571 37.2902 0.980508 33.5795 0.310547C33.1238 1.16941 32.5914 2.32461 32.2243 3.24356C28.2798 2.62518 24.3715 2.62518 20.4994 3.24356C20.1324 2.32461 19.5879 1.16941 19.1281 0.310547C15.4134 0.980508 11.86 2.16142 8.54058 3.78463C1.84523 14.3313 0.0302309 24.616 0.937733 34.7547C5.37844 38.2115 9.68202 40.3115 13.913 41.6856C14.9576 40.1869 15.8893 38.5937 16.6919 36.9147C15.1633 36.3092 13.6992 35.562 12.3158 34.6946C12.6828 34.4111 13.0418 34.1148 13.3887 33.8099C21.8264 37.9238 30.9942 37.9238 39.3311 33.8099C39.682 34.1148 40.0409 34.4111 40.4039 34.6946C39.0165 35.5663 37.5484 36.3135 36.0197 36.919C36.8224 38.5937 37.75 40.1912 38.7987 41.6899C43.0337 40.3157 47.3413 38.2159 51.782 34.7547C52.8468 23.0014 49.963 12.8111 44.159 3.77606ZM17.8415 28.5195C15.3085 28.5195 13.2313 26.0546 13.2313 23.0529C13.2313 20.0512 15.2642 17.582 17.8415 17.582C20.4188 17.582 22.4959 20.0469 22.4516 23.0529C22.4556 26.0546 20.4188 28.5195 17.8415 28.5195ZM34.8783 28.5195C32.3454 28.5195 30.2682 26.0546 30.2682 23.0529C30.2682 20.0512 32.301 17.582 34.8783 17.582C37.4556 17.582 39.5328 20.0469 39.4884 23.0529C39.4884 26.0546 37.4556 28.5195 34.8783 28.5195Z" fill="#2A2A2A"/>
</svg>
